<svg width="102" height="24" viewBox="0 0 102 24" fill="none" xmlns="http://www.w3.org/2000/svg">
<path class="j" d="M5.225 1.12976L2.8875 16.8578L2.8 17.4855C2.5 19.4687 1.1375 20.3474 0 21.0503L1.5625 24.0001C4.6875 22.6947 7.125 21.088 7.6125 17.8369L10.1 1.12976H5.225Z" fill="#E0E0E0"/>
<path class="a1" d="M10.1 13.7825C9.67498 16.6445 11.0875 18.3767 13.5 18.3767C14.9 18.3767 16.2 17.7114 17.2625 17.0085L17.2875 18.1256H21.3375L23.125 6.11303C21.825 5.6988 19.7625 5.37244 17.375 5.37244C13.475 5.37244 11.0625 7.35571 10.525 10.9206L10.1 13.7825ZM15.8375 14.6235C15.025 14.6235 14.725 14.0336 14.8625 13.1047L15.225 10.6947C15.3625 9.80341 15.9125 9.11303 16.8375 9.11303C17.275 9.11303 17.675 9.18834 17.9875 9.28876L17.275 14.0963C16.8625 14.385 16.3625 14.6235 15.8375 14.6235Z" fill="#E0E0E0"/>
<path class="m" d="M25.425 5.62349L23.5625 18.1256H28.225L29.425 10.0545C29.975 9.67788 30.5375 9.43939 30.9625 9.43939C31.625 9.43939 31.875 9.85362 31.775 10.5691L30.65 18.1256H35.325L36.5125 10.0419C37.05 9.66533 37.6 9.43939 38.0125 9.43939C38.675 9.43939 38.95 9.85362 38.85 10.5691L37.7125 18.1256H42.375L43.725 9.10048C44.0875 6.67788 43.0125 5.37244 40.725 5.37244C39.3125 5.37244 37.675 6.10048 36.45 6.92893C35.8625 5.79922 34.825 5.42265 33.5625 5.42265C32.05 5.42265 30.675 6.05027 29.4875 6.82851L29.475 5.62349H25.425Z" fill="#E0E0E0"/>
<path class="s" d="M54.2 13.6193C54.2 11.8746 53.4 11.0461 51.625 10.5566C50.3625 10.2051 49.6875 10.0294 49.6875 9.52726C49.6875 8.86198 50.125 8.61094 51.0875 8.61094C52.0375 8.61094 53.35 8.88709 53.9875 9.03772L54.875 5.83688C54.3 5.6988 52.7875 5.37244 50.8375 5.37244C47.15 5.37244 45.175 7.29295 45.175 10.2679C45.175 12.1005 46.0125 12.8034 47.4375 13.2051C49.0125 13.6319 49.7 13.7449 49.7 14.2846C49.7 14.862 49.1125 15.1382 48.1625 15.1382C46.9875 15.1382 45.5625 14.7867 45.0375 14.5859L44.075 17.7239C44.7375 18.0127 46.45 18.3767 48.4375 18.3767C52.075 18.3767 54.2 16.9583 54.2 13.6193Z" fill="#E0E0E0"/>
<path class="t" d="M55.325 9.15065H56.6375C56.3125 11.3849 55.8125 13.9331 55.8875 15.728C56.0125 17.5481 57.2125 18.3766 59.45 18.3766C60.875 18.3766 61.9625 18.1632 62.45 18.0251L62.75 14.5858C62.525 14.6109 61.925 14.7113 61.425 14.7113C60.7875 14.7113 60.525 14.3975 60.65 13.5314L61.3 9.15065H63.375L63.9 5.62345H61.7375C61.9125 4.45609 62.0875 3.30128 62.25 2.13391H58.0375L57.3 5.62345H55.8375L55.325 9.15065Z" fill="#E0E0E0"/>
<path class="a2" d="M64.2 13.7825C63.775 16.6445 65.1875 18.3767 67.6 18.3767C69 18.3767 70.3 17.7114 71.3625 17.0085L71.3875 18.1256H75.4375L77.225 6.11303C75.925 5.6988 73.8625 5.37244 71.475 5.37244C67.575 5.37244 65.1625 7.35571 64.625 10.9206L64.2 13.7825ZM69.9375 14.6235C69.125 14.6235 68.825 14.0336 68.9625 13.1047L69.325 10.6947C69.4625 9.80341 70.0125 9.11303 70.9375 9.11303C71.375 9.11303 71.775 9.18834 72.0875 9.28876L71.375 14.0963C70.9625 14.385 70.4625 14.6235 69.9375 14.6235Z" fill="#E0E0E0"/>
<path class="c" d="M82.85 11.1591C83.0375 9.86617 83.925 9.06282 85.125 9.06282C86.0625 9.06282 86.9875 9.35152 87.175 9.40173L88.15 5.79922C87.7125 5.68625 86.2 5.37244 84.7375 5.37244C81.475 5.37244 79.2375 7.0168 78.5 10.0419C78.4 10.4185 78.325 10.8076 78.2625 11.2219L78.0625 12.5398C78 12.9415 77.9625 13.3432 77.95 13.7198C77.7875 16.7825 79.5125 18.3767 82.85 18.3767C84.225 18.3767 85.575 18.1758 86.3125 18.0001L86.575 14.4101C86.1375 14.5106 85.2625 14.6863 84.3625 14.6863C83.0875 14.6863 82.425 13.9206 82.625 12.6026L82.85 11.1591Z" fill="#E0E0E0"/>
<path class="k" d="M90.5875 0L87.8875 18.1255H92.55L93.225 13.569H93.9125L94.4875 15.4017C95.1 17.3724 95.775 18.3766 97.775 18.3766C99.0125 18.3766 99.9 18.1255 100.338 17.9372L100.825 14.3975C100.663 14.4351 100.263 14.5105 99.8875 14.5105C99.575 14.5105 99.3125 14.3849 99.1 14.1213C98.65 13.5565 98.4625 12.8033 98.2 11.8243L102 5.62343H96.875L94.6625 9.841H93.7875L95.25 0H90.5875Z" fill="#E0E0E0"/>
</svg>
